<svg width="80" height="73" viewBox="0 0 80 73" fill="none" xmlns="http://www.w3.org/2000/svg">
<path d="M19.8582 55.0471L19.3842 57.1531M22.2882 55.3011L21.9722 57.1311M24.8042 55.2711L24.4882 56.5811M57.2282 55.0471L57.7022 57.1531M54.7982 55.3011L55.1162 57.1311M52.2822 55.2711L52.5982 56.5811M55.1822 17.3211C63.7302 22.3431 69.6222 32.9451 70.2182 46.1011C71.2242 66.3851 58.2702 71.345 38.5442 71.345C18.8182 71.345 5.86416 66.3851 6.86816 46.1051C7.03816 42.0251 7.76616 37.9851 9.03216 34.1051M12.0122 27.3591C14.3082 23.3291 17.2722 20.0351 20.7242 17.7511M27.2442 14.8351C28.7982 14.4431 30.3842 14.1971 31.9842 14.0991C31.9842 14.0991 33.9842 13.7951 38.5442 13.7951C43.1042 13.7951 45.1042 14.0991 45.1042 14.0991C45.1042 14.0991 48.0962 14.5531 49.5242 14.9391M29.9362 16.6671L23.7962 19.8731L17.0862 15.2391C14.9402 13.7591 11.4662 16.3691 11.4862 19.5791C11.5062 23.0531 12.6462 28.8051 11.5722 31.4511C9.30816 37.0191 1.11216 34.1431 1.19816 28.3551C0.182155 21.4091 3.27816 15.3191 5.94816 12.2551C8.85216 8.91905 14.0222 5.87505 18.0982 8.63905L29.9362 16.6671ZM48.1062 20.1011L54.8582 18.5551L56.9582 10.6751C57.6282 8.15505 61.9642 7.88905 64.0322 10.3451C66.2702 13.0011 69.1361 18.1171 71.6721 19.4311C77.0041 22.1991 81.3742 14.6911 77.5542 10.3451C73.8222 4.40105 67.5142 1.77705 63.4942 1.17705C59.1202 0.523052 53.2122 1.56105 51.9042 6.30905L48.1062 20.1011ZM27.8602 49.1611C27.8442 49.6535 27.6373 50.1204 27.2833 50.4631C26.9293 50.8058 26.4559 50.9975 25.9632 50.9975C25.4704 50.9975 24.997 50.8058 24.643 50.4631C24.289 50.1204 24.0821 49.6535 24.0662 49.1611C24.0821 48.6686 24.289 48.2017 24.643 47.859C24.997 47.5163 25.4704 47.3247 25.9632 47.3247C26.4559 47.3247 26.9293 47.5163 27.2833 47.859C27.6373 48.2017 27.8442 48.6686 27.8602 49.1611ZM31.8582 45.4011C31.8579 45.7667 31.7856 46.1286 31.6455 46.4663C31.5053 46.804 31.3 47.1107 31.0413 47.3691C30.7826 47.6274 30.4756 47.8322 30.1377 47.9719C29.7998 48.1116 29.4378 48.1833 29.0722 48.1831C28.7066 48.1828 28.3446 48.1105 28.0069 47.9704C27.6692 47.8302 27.3625 47.6249 27.1042 47.3662C26.8458 47.1075 26.641 46.8005 26.5013 46.4626C26.3616 46.1247 26.2899 45.7627 26.2902 45.3971C26.291 44.6587 26.585 43.9509 27.1077 43.4293C27.6304 42.9078 28.3388 42.6153 29.0772 42.6161C29.8155 42.6169 30.5233 42.9109 31.0449 43.4336C31.5664 43.9563 31.859 44.6627 31.8582 45.4011ZM25.5182 39.4371C25.5182 39.9277 25.4215 40.4135 25.2338 40.8668C25.046 41.32 24.7708 41.7319 24.4239 42.0788C24.077 42.4257 23.6651 42.7009 23.2119 42.8887C22.7586 43.0764 22.2728 43.1731 21.7822 43.1731C21.2915 43.1731 20.8057 43.0764 20.3524 42.8887C19.8992 42.7009 19.4873 42.4257 19.1404 42.0788C18.7935 41.7319 18.5183 41.32 18.3305 40.8668C18.1428 40.4135 18.0462 39.9277 18.0462 39.4371C18.0462 38.4462 18.4398 37.4959 19.1404 36.7953C19.841 36.0947 20.7913 35.7011 21.7822 35.7011C22.773 35.7011 23.7233 36.0947 24.4239 36.7953C25.1245 37.4959 25.5182 38.4462 25.5182 39.4371ZM34.3282 42.4971C34.3642 44.9495 33.4246 47.3159 31.7159 49.0755C30.0073 50.8352 27.6696 51.844 25.2172 51.8801C24.0028 51.8979 22.7969 51.6764 21.6681 51.2282C20.5394 50.78 19.51 50.1139 18.6387 49.2678C16.8791 47.5592 15.8702 45.2215 15.8342 42.7691C15.7981 40.3166 16.7377 37.9503 18.4464 36.1906C20.155 34.431 22.4927 33.4221 24.9452 33.3861C27.3976 33.35 29.7639 34.2896 31.5236 35.9983C33.2833 37.7069 34.2921 40.0446 34.3282 42.4971ZM54.5062 49.6131C54.5062 50.1512 54.2924 50.6673 53.9119 51.0478C53.5314 51.4283 53.0153 51.6421 52.4772 51.6421C51.939 51.6421 51.4229 51.4283 51.0424 51.0478C50.6619 50.6673 50.4482 50.1512 50.4482 49.6131C50.4482 49.0749 50.6619 48.5588 51.0424 48.1783C51.4229 47.7978 51.939 47.5841 52.4772 47.5841C53.0153 47.5841 53.5314 47.7978 53.9119 48.1783C54.2924 48.5588 54.5062 49.0749 54.5062 49.6131ZM58.7802 45.5931C58.7796 46.3826 58.4655 47.1396 57.9068 47.6975C57.3481 48.2554 56.5907 48.5686 55.8012 48.5681C55.0116 48.5675 54.2546 48.2534 53.6967 47.6947C53.1388 47.136 52.8256 46.3786 52.8262 45.5891C52.827 44.7995 53.1414 44.0426 53.7002 43.4849C53.9769 43.2087 54.3053 42.9898 54.6667 42.8405C55.028 42.6913 55.4152 42.6147 55.8062 42.6151C56.1971 42.6154 56.5841 42.6928 56.9452 42.8428C57.3062 42.9928 57.6342 43.2124 57.9103 43.4891C58.1865 43.7658 58.4054 44.0942 58.5547 44.4556C58.7039 44.8169 58.7805 45.2041 58.7802 45.5951V45.5931ZM52.4402 39.4371C52.4402 40.4279 52.0465 41.3782 51.3459 42.0788C50.6453 42.7794 49.695 43.1731 48.7042 43.1731C47.7133 43.1731 46.763 42.7794 46.0624 42.0788C45.3618 41.3782 44.9682 40.4279 44.9682 39.4371C44.9907 38.4609 45.3944 37.5323 46.0927 36.85C46.7911 36.1676 47.7288 35.7855 48.7052 35.7855C49.6816 35.7855 50.6192 36.1676 51.3176 36.85C52.0159 37.5323 52.4196 38.4609 52.4422 39.4371H52.4402ZM61.2522 42.4971C61.2522 44.9498 60.2778 47.302 58.5435 49.0364C56.8091 50.7707 54.4569 51.7451 52.0042 51.7451C49.5514 51.7451 47.1992 50.7707 45.4648 49.0364C43.7305 47.302 42.7562 44.9498 42.7562 42.4971C42.7562 40.0443 43.7305 37.6921 45.4648 35.9577C47.1992 34.2234 49.5514 33.2491 52.0042 33.2491C54.4569 33.2491 56.8091 34.2234 58.5435 35.9577C60.2778 37.6921 61.2522 40.0443 61.2522 42.4971Z" stroke="white" stroke-width="2" stroke-linecap="round" stroke-linejoin="round"/>
</svg>
